<?xml version="1.0" encoding="utf-8"?>
<!-- Generator: Adobe Illustrator 25.2.1, SVG Export Plug-In . SVG Version: 6.00 Build 0)  -->
<svg width="24" height="24" xmlns="http://www.w3.org/2000/svg">
<style type="text/css">
	.st0{fill:#5F6368;}
	.st1{fill:#FFFFFF;}
</style>
<path class="st0" d="M15,5c2.2,0,4,1.8,4,4v6c0,2.2-1.8,4-4,4H9c-2.2,0-4-1.8-4-4V9c0-2.2,1.8-4,4-4H15 M15,3H9C5.7,3,3,5.7,3,9v6  c0,3.3,2.7,6,6,6h6c3.3,0,6-2.7,6-6V9C21,5.7,18.3,3,15,3L15,3z"></path>
<path class="st0" d="M11,13.2L8.8,11l-1.4,1.4L11,16l6-6l-1.4-1.4L11,13.2z"></path>
</svg>


