<?xml version="1.0" encoding="utf-8"?>
<!-- Generator: Adobe Illustrator 25.2.1, SVG Export Plug-In . SVG Version: 6.00 Build 0)  -->
<svg width="20" height="20" xmlns="http://www.w3.org/2000/svg">
<style type="text/css">
	.st0{fill:#5F6368;}
	.st1{fill:#FFFFFF;}
</style>
<path class="st0" d="M10 6c.82 0 1.5-.68 1.5-1.5S10.82 3 10 3s-1.5.67-1.5 1.5S9.18 6 10 6zm0 5.5c.82 0 1.5-.68 1.5-1.5s-.68-1.5-1.5-1.5-1.5.68-1.5 1.5.68 1.5 1.5 1.5zm0 5.5c.82 0 1.5-.67 1.5-1.5 0-.82-.68-1.5-1.5-1.5s-1.5.68-1.5 1.5c0 .83.68 1.5 1.5 1.5z"></path>
</svg>



